{"title":"MouseHunt RUS VHSRip","uid":6214264,"size":3848466675,"categoryP":"video","categoryS":"movies","magnet":"?xt=urn:btih:99300fe6c1904443a8440927358641defc1b5f3a&amp;dn=MouseHunt+RUS+VHSRip&amp;tr=udp%3A%2F%2Ftracker.openbittorrent.com%3A80&amp;tr=udp%3A%2F%2Fopen.demonii.com%3A1337&amp;tr=udp%3A%2F%2Ftracker.coppersurfer.tk%3A6969&amp;tr=udp%3A%2F%2Fexodus.desync.com%3A6969","seeders":1,"leechers":0,"uploader":"MEDVEDxEvilPunk","files":-1,"time":1299100399,"description":"801-27387840.VRO\nCreated: 25.02.2011\nCRC32: FF924170\nMD5: BAF889802A63526E8EF4B8DC49CEC992\nSHA-1: 7F4543EE7B6D8A251CB8F90BC477A16965C73DAB\n\nVHS Recorder Model: SAMSUNG VK-30R/BWX\nVHS Recorder S/N: 62MF100720\nRecording Device Model: PANASONIC DVD VIDEO RECORDER DMR-E55\nRecording Device S/N: VV4EA002574\nRecording Device Quality Settings: Custom\nMedium Used: DVD-RAM 4.7 GB Single Sided Non-Cartridge Disc\nTape Info: E22DAP E-120\n\nGeneral\nComplete name                    : Y:\\Core\\Video\\Restored from VHS Tapes\\801-27387840.VRO\nFormat                           : MPEG-PS\nFile size                        : 3.58 GiB\nDuration                         : 1h 34mn\nOverall bit rate                 : 5 414 Kbps\n\nVideo\nID                               : 224 (0xE0)\nFormat                           : MPEG Video\nFormat version                   : Version 2\nFormat profile                   : Main@Main\nFormat settings, BVOP            : Yes\nFormat settings, Matrix          : Default\nDuration                         : 1h 34mn\nBit rate mode                    : Variable\nBit rate                         : 5 050 Kbps\nNominal bit rate                 : 9 579 Kbps\nWidth                            : 704 pixels\nHeight                           : 576 pixels\nDisplay aspect ratio             : 4:3\nFrame rate                       : 25.000 fps\nStandard                         : PAL\nColor space                      : YUV\nChroma subsampling               : 4:2:0\nBit depth                        : 8 bits\nScan type                        : Interlaced\nScan order                       : Top Field First\nBits/(Pixel*Frame)               : 0.498\nStream size                      : 3.34 GiB (93%)\n\nAudio\nID                               : 128 (0x80)\nFormat                           : AC-3\nFormat/Info                      : Audio Coding 3\nMode extension                   : CM (complete main)\nDuration                         : 1h 34mn\nBit rate mode                    : Constant\nBit rate                         : 256 Kbps\nChannel(s)                       : 2 channels\nChannel positions                : Front: L R\nSampling rate                    : 48.0 KHz\nBit depth                        : 16 bits\nStream size                      : 174 MiB (5%)","torrent":{"xt":"urn:btih:99300fe6c1904443a8440927358641defc1b5f3a","amp;dn":"MouseHunt+RUS+VHSRip","amp;tr":["udp%3A%2F%2Ftracker.openbittorrent.com%3A80","udp%3A%2F%2Fopen.demonii.com%3A1337","udp%3A%2F%2Ftracker.coppersurfer.tk%3A6969","udp%3A%2F%2Fexodus.desync.com%3A6969"],"infoHash":"99300fe6c1904443a8440927358641defc1b5f3a","infoHashBuffer":{"type":"Buffer","data":[153,48,15,230,193,144,68,67,168,68,9,39,53,134,65,222,252,27,95,58]},"announce":[],"urlList":[]}}